<svg
   width="25.4mm"
   height="42.9mm"
   version="1.1"
   id="svg177"
   sodipodi:docname="boardreact.svg"
   inkscape:version="1.4.2 (2aeb623e1d, 2025-05-12)"
   xml:space="preserve"
   xmlns:inkscape="http://www.inkscape.org/namespaces/inkscape"
   xmlns:sodipodi="http://sodipodi.sourceforge.net/DTD/sodipodi-0.dtd"
   xmlns:xlink="http://www.w3.org/1999/xlink"
   xmlns="http://www.w3.org/2000/svg"
   xmlns:svg="http://www.w3.org/2000/svg">
<path
         d="m -283,-643 c 0,-37.8 -56.5,-37.8 -56.5,0 0,37.8 56.5,37.8 56.5,0"
         id="GNDA"
         inkscape:label="GND0" />
<path
         d="m -283,-253 c 0,-37.8 -56.5,-37.8 -56.5,0 0,37.8 56.5,37.8 56.5,0"
         id="GPIO4"
         inkscape:label="GPIO4" />
<path
         d="m -283,-155 c 0,-37.8 -56.5,-37.8 -56.5,0 0,37.8 56.5,37.8 56.5,0"
         id="GPIO5"
         inkscape:label="GPIO5"
         style="display:inline" />
<path
         d="m -283,-57.6 c 0,-37.8 -56.5,-37.8 -56.5,0 0,37.8 56.5,37.8 56.5,0"
         id="GPIO6" />
<path
         d="m -283,40 c 0,-37.8 -56.5,-37.8 -56.5,0 0,37.8 56.5,37.8 56.5,0"
         id="GPIO7" />
<path
         d="m -283,138 c 0,-37.8 -56.5,-37.8 -56.5,0 0,37.8 56.5,37.8 56.5,0"
         id="GNDB" />
<path
         d="m -283,235 c 0,-37.8 -56.5,-37.8 -56.5,0 0,37.8 56.5,37.8 56.5,0"
         id="GPIO8" />
<path
         d="m -283,333 c 0,-37.8 -56.5,-37.8 -56.5,0 0,37.8 56.5,37.8 56.5,0"
         id="GPIO9" />
<path
         d="m -283,626 c 0,-37.8 -56.5,-37.8 -56.5,0 0,37.8 56.5,37.8 56.5,0"
         id="GNDC" />
<path
         d="m 621,-643 c 0,-37.8 -56.5,-37.8 -56.5,0 0,37.8 56.5,37.8 56.5,0"
         id="GNDD" />
<path
         d="m 621,-546 c 0,-37.8 -56.5,-37.8 -56.5,0 0,37.8 56.5,37.8 56.5,0"
         id="GPIO0" />
<path
         d="m 621,-448 c 0,-37.8 -56.5,-37.8 -56.5,0 0,37.8 56.5,37.8 56.5,0"
         id="GPIO1" />
<path
         d="m 621,-350 c 0,-37.8 -56.5,-37.8 -56.5,0 0,37.8 56.5,37.8 56.5,0"
         id="GPIO2" />
<path
         d="m 621,-253 c 0,-37.8 -56.5,-37.8 -56.5,0 0,37.8 56.5,37.8 56.5,0"
         id="GPIO3" />
<path
         d="m 621,-155 c 0,-37.8 -56.5,-37.8 -56.5,0 0,37.8 56.5,37.8 56.5,0"
         id="GNDE" />
<path
         d="m 621,-57.6 c 0,-37.8 -56.5,-37.8 -56.5,0 0,37.8 56.5,37.8 56.5,0"
         id="GPIO10" />
<path
         d="m 621,40 c 0,-37.8 -56.5,-37.8 -56.5,0 0,37.8 56.5,37.8 56.5,0"
         id="GNDF" />
<path
         d="m 621,138 c 0,-37.8 -56.5,-37.8 -56.5,0 0,37.8 56.5,37.8 56.5,0"
         id="GPIO20" />
<path
         d="m 621,235 c 0,-37.8 -56.5,-37.8 -56.5,0 0,37.8 56.5,37.8 56.5,0"
         id="GPIO21" />
<path
         d="m 621,333 c 0,-37.8 -56.5,-37.8 -56.5,0 0,37.8 56.5,37.8 56.5,0"
         id="GNDG" />
<path
         d="m 621,430 c 0,-37.8 -56.5,-37.8 -56.5,0 0,37.8 56.5,37.8 56.5,0"
         id="GPIO18"
         inkscape:label="GPIO18" />
<path
         d="m 621,528 c 0,-37.8 -56.5,-37.8 -56.5,0 0,37.8 56.5,37.8 56.5,0"
         id="GPIO19"
         inkscape:label="GPIO19" />
<path
         d="m 621,626 c 0,-37.8 -56.5,-37.8 -56.5,0 0,37.8 56.5,37.8 56.5,0"
         id="GNDH" />
<path
         d="m 621,723 c 0,-37.8 -56.5,-37.8 -56.5,0 0,37.8 56.5,37.8 56.5,0"
         id="GNDI" />
</svg>